<svg xmlns="http://www.w3.org/2000/svg" viewBox="0 0 323.52 325.24"><path d="M318.52,325.24c-2.25-13.08-3.94-26.3-6.91-39.23-4.24-18.51-11.49-35.69-24.62-50-4.2-4.6-7.25-10.33-10.37-15.79a7.56,7.56,0,0,1-.07-6c4.49-10.13,10-19.85,13.9-30.2,17.33-46.48,25.45-94.65,25.33-144.25,0-7.48.65-15,1-22.46.23-5-2-7.69-7.09-8.22A35.34,35.34,0,0,0,305.18,9c-23,.38-46.05-.24-68.94,1.46a244.61,244.61,0,0,0-64.79,13.31c-20.78,7.48-41.18,16-61.66,24.33-4,1.6-6.33,1.89-9.53-1.92-8.09-9.66-19.18-15.37-30.53-20.27C56.91,20.33,44,14.92,30.8,10.39c-5-1.71-10.82-.91-16.28-1.12-3.66-.13-7.35.17-11-.13C2.23,9,.05,7.77,0,6.94A7.12,7.12,0,0,1,1.72,1.85C2.88.76,5.09.51,6.87.41c5-.28,10-.39,15-.39q133,0,266,0c10.83,0,21.65.24,32.47.4a25.42,25.42,0,0,1,3.15.54V318.25c0,2.33.05,4.66.08,7Z" /><path d="M312.22,16.26C306,23.38,300.28,30.53,294,37.1c-19.36,20.16-32.13,44.35-43.36,69.55-2.57,5.77-5.5,11.39-7.86,17.24-1.3,3.24-3.13,4.11-6.56,4.62-9.65,1.42-19.58,2.56-28.63,5.9-7.57,2.79-14.07,8.49-21,13-3.6,2.34-6.9,5.21-10.71,7.11-1.37.68-3.56,0-5.35-.74,0-.72.06-4.35,1.1-5.62,12.92-15.91,22.24-33.45,25.1-54,.22-1.64.69-3.25.95-4.89.89-5.58,3.56-8.68,9.53-10.39,37.46-10.7,67.29-33.4,93.81-61,.79-.81,5.95-6.41,5.95-6.41l2.44,2.4A35.89,35.89,0,0,0,312.22,16.26Z" /></svg>